<svg width="25" height="24" viewBox="0 0 25 24" fill="none" xmlns="http://www.w3.org/2000/svg">
<path d="M15.8333 12.1504C18.2504 12.1504 20.1829 14.0828 20.1829 16.5C20.1829 17.351 19.9412 18.1436 19.5159 18.8203L19.4524 18.9209L19.5364 19.0059L22.511 21.999L21.3323 23.1777L18.3186 20.2129L18.2346 20.1299L18.134 20.1924C17.4671 20.608 16.6743 20.8496 15.8333 20.8496C13.4161 20.8496 11.4836 18.9172 11.4836 16.5C11.4836 14.0828 13.4161 12.1504 15.8333 12.1504ZM15.8333 13.8496C15.1304 13.8496 14.4562 14.129 13.9592 14.626C13.4623 15.1229 13.1829 15.7972 13.1829 16.5C13.1829 17.2028 13.4623 17.8771 13.9592 18.374C14.4562 18.871 15.1304 19.1504 15.8333 19.1504C16.5361 19.1504 17.2103 18.871 17.7073 18.374C18.2042 17.8771 18.4836 17.2028 18.4836 16.5C18.4836 15.7972 18.2042 15.1229 17.7073 14.626C17.2103 14.129 16.5361 13.8496 15.8333 13.8496ZM7.2854 4.30762L4.2854 5.31738L4.18286 5.35254V17.5293L4.38696 17.4502L7.38696 16.29L7.48364 16.2529V4.24121L7.2854 4.30762ZM13.4836 5.76367L13.3831 5.72852L9.38306 4.32812L9.18286 4.25879V16.5C9.18286 17.0532 9.24962 17.592 9.37524 18.1045L8.38306 17.7588L8.33032 17.7402L8.27856 17.7598L2.95142 19.8242L2.82544 19.8486C2.73545 19.8466 2.64997 19.8109 2.58618 19.7471C2.52054 19.6814 2.48364 19.5928 2.48364 19.5V4.37988C2.48369 4.22257 2.58384 4.09424 2.74048 4.04199H2.74146L8.33228 2.1582L14.2834 4.24121L14.3362 4.25977L14.3879 4.24023L19.7141 2.1748L19.8401 2.15039C19.9304 2.15216 20.0163 2.18891 20.0803 2.25293C20.146 2.31857 20.1829 2.40717 20.1829 2.5V11.4717C19.6764 11.0353 19.1077 10.6721 18.4836 10.4023V4.48145L18.2795 4.56055L15.2795 5.71973L15.1829 5.75684V9.86621C14.5935 9.93605 14.0195 10.0756 13.4836 10.2793V5.76367Z" fill="#7A7A7A" stroke="white" stroke-width="0.3"/>
</svg>
